<svg viewBox="0 0 24 25" fill="none" xmlns="http://www.w3.org/2000/svg">
<path fill-rule="evenodd" clip-rule="evenodd" d="M12 2.5C9.284 2.5 8.944 2.51133 7.87733 2.56C6.81267 2.60867 6.08533 2.778 5.44933 3.02533C4.78267 3.276 4.178 3.66933 3.678 4.17867C3.16948 4.67809 2.77591 5.28233 2.52467 5.94933C2.27867 6.58533 2.10867 7.31333 2.06 8.378C2.012 9.444 2 9.78333 2 12.5C2 15.2167 2.01133 15.556 2.06 16.6227C2.10867 17.6873 2.278 18.4147 2.52533 19.0507C2.776 19.7173 3.16933 20.322 3.67867 20.822C4.1781 21.3305 4.78234 21.7241 5.44933 21.9753C6.08533 22.222 6.81267 22.3913 7.87733 22.44C8.944 22.4887 9.284 22.5 12 22.5C14.716 22.5 15.056 22.4887 16.1227 22.44C17.1873 22.3913 17.9147 22.222 18.5507 21.9747C19.2173 21.724 19.822 21.3307 20.322 20.8213C20.8305 20.3219 21.2241 19.7177 21.4753 19.0507C21.722 18.4147 21.8913 17.6873 21.94 16.6227C21.9887 15.556 22 15.216 22 12.5C22 9.784 21.9887 9.444 21.94 8.37733C21.8913 7.31267 21.722 6.58533 21.4747 5.94933C21.2236 5.28204 20.83 4.67755 20.3213 4.178C19.8219 3.66948 19.2177 3.27591 18.5507 3.02467C17.9147 2.77867 17.1867 2.60867 16.122 2.56C15.056 2.512 14.7167 2.5 12 2.5ZM12 4.302C14.67 4.302 14.9867 4.312 16.0413 4.36C17.016 4.40467 17.5453 4.56667 17.898 4.70467C18.3647 4.88533 18.698 5.10267 19.048 5.452C19.398 5.802 19.6147 6.13533 19.7953 6.602C19.9327 6.95467 20.0953 7.484 20.14 8.45867C20.188 9.51333 20.198 9.83 20.198 12.5C20.198 15.17 20.188 15.4867 20.14 16.5413C20.0953 17.516 19.9333 18.0453 19.7953 18.398C19.6353 18.8324 19.3799 19.2253 19.048 19.548C18.7254 19.88 18.3324 20.1354 17.898 20.2953C17.5453 20.4327 17.016 20.5953 16.0413 20.64C14.9867 20.688 14.6707 20.698 12 20.698C9.32933 20.698 9.01333 20.688 7.95867 20.64C6.984 20.5953 6.45467 20.4333 6.102 20.2953C5.66764 20.1353 5.27467 19.8799 4.952 19.548C4.62012 19.2253 4.36475 18.8323 4.20467 18.398C4.06733 18.0453 3.90467 17.516 3.86 16.5413C3.812 15.4867 3.802 15.17 3.802 12.5C3.802 9.83 3.812 9.51333 3.86 8.45867C3.90467 7.484 4.06667 6.95467 4.20467 6.602C4.38533 6.13533 4.60267 5.802 4.952 5.452C5.27463 5.12003 5.66761 4.86465 6.102 4.70467C6.45467 4.56733 6.984 4.40467 7.95867 4.36C9.01333 4.312 9.33 4.302 12 4.302Z" fill="white"/>
<path fill-rule="evenodd" clip-rule="evenodd" d="M12 15.8367C11.5618 15.8367 11.128 15.7504 10.7231 15.5827C10.3183 15.415 9.95047 15.1692 9.64064 14.8594C9.3308 14.5495 9.08502 14.1817 8.91734 13.7769C8.74965 13.3721 8.66335 12.9382 8.66335 12.5C8.66335 12.0618 8.74965 11.6279 8.91734 11.2231C9.08502 10.8183 9.3308 10.4505 9.64064 10.1406C9.95047 9.83078 10.3183 9.58501 10.7231 9.41732C11.128 9.24964 11.5618 9.16333 12 9.16333C12.885 9.16333 13.7336 9.51487 14.3594 10.1406C14.9851 10.7664 15.3367 11.6151 15.3367 12.5C15.3367 13.3849 14.9851 14.2336 14.3594 14.8594C13.7336 15.4851 12.885 15.8367 12 15.8367ZM12 7.36C10.6368 7.36 9.32942 7.90153 8.36549 8.86547C7.40155 9.82941 6.86002 11.1368 6.86002 12.5C6.86002 13.8632 7.40155 15.1706 8.36549 16.1345C9.32942 17.0985 10.6368 17.64 12 17.64C13.3632 17.64 14.6706 17.0985 15.6345 16.1345C16.5985 15.1706 17.14 13.8632 17.14 12.5C17.14 11.1368 16.5985 9.82941 15.6345 8.86547C14.6706 7.90153 13.3632 7.36 12 7.36ZM18.6353 7.26667C18.6353 7.5889 18.5073 7.89794 18.2795 8.1258C18.0516 8.35366 17.7426 8.48167 17.4204 8.48167C17.0981 8.48167 16.7891 8.35366 16.5612 8.1258C16.3334 7.89794 16.2053 7.5889 16.2053 7.26667C16.2053 6.94443 16.3334 6.63539 16.5612 6.40753C16.7891 6.17968 17.0981 6.05167 17.4204 6.05167C17.7426 6.05167 18.0516 6.17968 18.2795 6.40753C18.5073 6.63539 18.6353 6.94443 18.6353 7.26667Z" fill="white"/>
</svg>
