<svg viewBox="0 0 40 40" fill="none" xmlns="http://www.w3.org/2000/svg">
<path d="M17.1262 14.3823L20.3554 20.7592L26.3697 18.2472L29.1556 10.067L19.7854 10.5823L17.1262 14.3823Z" fill="#716BB4"/>
<path d="M25.5416 27.9143H16.0416C15.1668 27.9143 14.4583 27.2057 14.4583 26.331V17.6226H27.1249V26.331C27.1249 27.2057 26.4164 27.9143 25.5416 27.9143Z" fill="#A63D3D"/>
<path d="M17.7492 23.481C18.339 24.6099 19.6366 25.0849 20.7576 24.4911L30.4903 19.4419C31.0801 19.145 31.4934 18.7294 31.7879 18.313C32.7909 16.4122 35.0915 11.9567 36.6249 8.0957L27.7464 10.4976L23.0582 17.5403L19.0468 19.6786C17.5133 20.4512 17.0415 22.1739 17.7492 23.481Z" fill="#D2CEF9"/>
<path d="M37.4167 7.01588C35.7629 11.0779 26.2511 12.4602 26.2511 12.4602H21.3507L18.5228 15.0157L20.0927 17.6226H14.4584C13.9177 16.641 13.2962 15.8889 13.1276 15.4582C12.7009 14.3942 12.8228 13.2059 13.4403 12.2662L16.8698 7.58271C17.3044 7.14017 17.7921 6.643 18.2188 6.51871L28.3403 2.58096L37.4167 7.01588Z" fill="#D2CEF9"/>
<path d="M20.7148 23.8016C19.8693 24.199 18.8932 23.8016 18.5686 22.941C18.1783 22.0805 18.5686 21.0877 19.4141 20.7576C20.1947 20.3602 21.4954 23.4042 20.7148 23.8016Z" fill="#716BB4"/>
<path d="M18.567 34.6878L17.1206 31.8536L22.4715 29.6417C23.3415 29.2823 24.3691 29.6259 24.7681 30.408C25.1671 31.1902 24.7863 32.1157 23.9171 32.4751L18.567 34.6878Z" fill="#716BB4"/>
<path d="M21.7249 35.0037L20.2786 31.9969L25.6302 29.6504C26.4995 29.2696 27.5279 29.6338 27.9269 30.4635C28.3259 31.2931 27.9443 32.2756 27.0758 32.6564L21.7249 35.0037Z" fill="#716BB4"/>
<path d="M19.164 33.999C19.4197 34.1004 21.7005 34.9372 22.5602 32.772C22.6188 32.6255 22.6695 32.4118 22.7028 32.1687L24.5956 31.3549C24.6598 32.141 24.5386 32.8955 24.3114 33.471C23.0606 36.6187 19.9406 36.3384 18.5243 35.7732L10.5 33.4576L11.2917 31.0826L19.164 33.999Z" fill="#716BB4"/>
<path d="M13.9904 32.536C13.5882 32.7118 13.1235 32.5226 12.9509 32.118C12.7775 31.7119 12.9636 31.2417 13.3642 31.0667C13.7663 30.891 14.2318 31.0794 14.4044 31.4831C14.577 31.89 14.3917 32.3587 13.9904 32.536Z" fill="#716BB4"/>
<path d="M30.0383 33.3546L19.2242 38.0176C19.1213 38.0571 19.0183 38.0888 18.9233 38.1126C18.9075 38.1126 18.8996 38.1126 18.8917 38.1205H18.8679C18.385 38.2551 17.8625 38.2392 17.3638 38.0413L8.28333 34.4234L5.71042 35.5317L3.375 29.8001C3.375 29.8001 9.60542 27.0609 12.2417 28.1851L13.2392 28.573C13.2788 28.6046 13.3183 28.6284 13.3658 28.6442L20.8471 31.7634C21.3854 31.9851 21.71 32.4996 21.7258 33.0538C21.7258 33.0855 21.7258 33.1251 21.7179 33.1646C21.6942 33.3388 21.6546 33.4971 21.6071 33.608C21.5754 33.6951 21.5358 33.7742 21.4883 33.8534C21.14 34.3838 20.4671 34.6292 19.8575 34.4234L12.7087 32.0405L12.6533 32.0167C12.6454 32.0167 12.6454 32.0088 12.6375 32.0088L12.5979 31.993V32.0009L12.4871 31.9692L12.3367 31.9138C11.9171 31.7713 11.4738 32.0009 11.3313 32.4126C11.1967 32.8321 11.4183 33.2755 11.83 33.418L16.3742 34.9301L18.6463 35.8088C19.0025 35.9513 19.5092 36.0701 20.0554 36.0701H20.0633C20.1425 36.078 20.2217 36.078 20.3008 36.078C21.4963 36.078 22.6283 35.3576 23.0954 34.1938C23.3171 33.6396 23.3567 33.0459 23.2458 32.4996L28.6688 30.1721C29.5475 29.7921 30.5608 30.1959 30.9408 31.0746C31.3208 31.9534 30.9171 32.9746 30.0383 33.3546Z" fill="#D2CEF9"/>
</svg>
