<svg viewBox="0 0 41 40" fill="none" xmlns="http://www.w3.org/2000/svg">
<g clip-path="url(#clip0_1472_416)">
<path d="M16.3334 36.6667H8.83337V35H14.6667V28.3334H16.3334V36.6667Z" fill="#D2CEF9"/>
<path d="M12.1667 31.6667H6.33337V30H10.5V23.9584H12.1667V31.6667Z" fill="#D2CEF9"/>
<path d="M4.66667 25.8334H3V20.8334H11.3333V22.5H4.66667V25.8334Z" fill="#D2CEF9"/>
<path d="M32.1666 36.6667H24.6666V28.3334H26.3333V35H32.1666V36.6667Z" fill="#D2CEF9"/>
<path d="M34.6667 31.6667H28.8334V23.3334H30.5V30H34.6667V31.6667Z" fill="#D2CEF9"/>
<path d="M38 25.8334H36.3333V22.5H30.5V20.8334H38V25.8334Z" fill="#D2CEF9"/>
<path d="M33.8241 8.33329C33.8241 8.33329 34.6566 27.5 20.6441 35C6.3433 27.5 7.1758 8.33329 7.1758 8.33329C13.8383 8.33329 20.5 1.66663 20.5 1.66663C20.5 1.66663 26.3291 8.33329 33.8241 8.33329Z" fill="#60C764"/>
<path d="M23.8333 15C23.836 14.4149 23.6847 13.8393 23.3945 13.3312C23.1043 12.8231 22.6855 12.4004 22.1802 12.1054C21.6748 11.8105 21.1007 11.6538 20.5156 11.651C19.9305 11.6483 19.3549 11.7996 18.8468 12.0898C18.3387 12.38 17.916 12.7989 17.621 13.3042C17.3261 13.8096 17.1694 14.3837 17.1667 14.9688C17.164 15.554 17.3153 16.1295 17.6055 16.6376C17.8957 17.1457 18.3146 17.5684 18.82 17.8633L17.1666 24.1667H23.8333L22.18 17.8633C22.6818 17.5722 23.0985 17.1546 23.3886 16.6522C23.6787 16.1498 23.832 15.5801 23.8333 15Z" fill="white"/>
<path d="M34.6667 32.5C35.5871 32.5 36.3333 31.7538 36.3333 30.8333C36.3333 29.9128 35.5871 29.1666 34.6667 29.1666C33.7462 29.1666 33 29.9128 33 30.8333C33 31.7538 33.7462 32.5 34.6667 32.5Z" fill="#A63D3D"/>
<path d="M37.1667 27.5C38.0871 27.5 38.8333 26.7538 38.8333 25.8333C38.8333 24.9128 38.0871 24.1666 37.1667 24.1666C36.2462 24.1666 35.5 24.9128 35.5 25.8333C35.5 26.7538 36.2462 27.5 37.1667 27.5Z" fill="#A63D3D"/>
<path d="M32.1667 37.5C33.0871 37.5 33.8333 36.7538 33.8333 35.8333C33.8333 34.9128 33.0871 34.1666 32.1667 34.1666C31.2462 34.1666 30.5 34.9128 30.5 35.8333C30.5 36.7538 31.2462 37.5 32.1667 37.5Z" fill="#A63D3D"/>
<path d="M6.33329 32.5C7.25377 32.5 7.99996 31.7538 7.99996 30.8333C7.99996 29.9128 7.25377 29.1666 6.33329 29.1666C5.41282 29.1666 4.66663 29.9128 4.66663 30.8333C4.66663 31.7538 5.41282 32.5 6.33329 32.5Z" fill="#A63D3D"/>
<path d="M3.83329 27.5C4.75377 27.5 5.49996 26.7538 5.49996 25.8333C5.49996 24.9128 4.75377 24.1666 3.83329 24.1666C2.91282 24.1666 2.16663 24.9128 2.16663 25.8333C2.16663 26.7538 2.91282 27.5 3.83329 27.5Z" fill="#A63D3D"/>
<path d="M8.83329 37.5C9.75377 37.5 10.5 36.7538 10.5 35.8333C10.5 34.9128 9.75377 34.1666 8.83329 34.1666C7.91282 34.1666 7.16663 34.9128 7.16663 35.8333C7.16663 36.7538 7.91282 37.5 8.83329 37.5Z" fill="#A63D3D"/>
</g>
<defs>
<clipPath id="clip0_1472_416">
<rect width="40" height="40" fill="white" transform="translate(0.5)"/>
</clipPath>
</defs>
</svg>
