<svg viewBox="0 0 41 40" fill="none" xmlns="http://www.w3.org/2000/svg">
<g clip-path="url(#clip0_1127_56681)">
<path d="M12.0002 15.834H17.0002V22.5007H12.0002V15.834Z" fill="#716BB4"/>
<path d="M16.1663 20.8335H20.3329V27.9168C20.3329 29.0677 19.4004 30.0002 18.2496 30.0002C17.0988 30.0002 16.1663 29.0677 16.1663 27.9168V20.8335ZM20.3329 20.0002H24.4996V27.0835C24.4996 28.2343 23.5671 29.1668 22.4163 29.1668C21.2654 29.1668 20.3329 28.2343 20.3329 27.0835V20.0002ZM24.4996 18.3335H28.6663V25.4168C28.6663 26.5677 27.7338 27.5002 26.5829 27.5002C25.4321 27.5002 24.4996 26.5677 24.4996 25.4168V18.3335Z" fill="#716BB4"/>
<path d="M14.5002 21.6665C14.5002 23.0465 15.6194 24.1665 17.0002 24.1665H32.8336C34.2144 24.1665 35.3336 23.0465 35.3336 21.6665V11.6665C35.3336 10.2865 34.2144 9.1665 32.8336 9.1665H17.0002C15.6194 9.1665 14.5002 10.2865 14.5002 11.6665V21.6665Z" fill="#A63D3D"/>
<path d="M14.5002 12.5H35.3336V15.8333H14.5002V12.5Z" fill="#434349"/>
<path d="M16.1663 16.6665H33.6663V19.9998H16.1663V16.6665Z" fill="#E3F2FD"/>
<path d="M23.6391 18.1531C24.5524 19.2831 24.1241 20.7406 23.1741 21.6073L15.3333 28.3331C14.8591 28.7673 12.5883 29.1665 12.0699 29.1665C9.56992 29.1665 5.33325 29.1665 5.33325 29.1665L11.4199 20.489L15.3333 20.8331L19.6874 18.019C21.2191 16.8356 22.6899 17.0181 23.6391 18.1531Z" fill="#D2CEF9"/>
<path d="M14.4999 17.1349V10.8333C13.8916 10.8333 13.2808 10.8324 12.8741 11.0366L5.33325 17.4999V29.1666C18.6666 28.3333 12.8333 21.6666 12.8333 21.6666L14.4999 17.1349Z" fill="#D2CEF9"/>
<path d="M22.6753 20.7115C23.2578 20.1165 23.2495 19.1631 22.6562 18.579C22.0612 17.9965 21.107 18.0056 20.5237 18.599C19.9395 19.1931 22.0912 21.3056 22.6753 20.7115Z" fill="#716BB4"/>
</g>
<defs>
<clipPath id="clip0_1127_56681">
<rect width="40" height="40" fill="white" transform="translate(0.333252)"/>
</clipPath>
</defs>
</svg>
