<svg viewBox="0 0 40 40" fill="none" xmlns="http://www.w3.org/2000/svg">
<g clip-path="url(#clip0_1127_56638)">
<path d="M21.6408 36.6667H18.3591C17.4241 36.6667 16.6666 35.9092 16.6666 34.9742V25H23.3333V34.9742C23.3333 35.9092 22.5758 36.6667 21.6408 36.6667Z" fill="#716BB4"/>
<path d="M13.3333 9.14087V4.19254C13.3333 3.71837 13.7183 3.33337 14.1925 3.33337H25.8075C26.2817 3.33337 26.6667 3.71837 26.6667 4.19254V9.14087C26.6667 9.61504 26.2817 10 25.8075 10H14.1925C13.7183 10 13.3333 9.61504 13.3333 9.14087ZM10.2192 14.1959C9.77417 14.0759 9.31667 14.3367 9.19583 14.7809L6.83583 23.4342C5.78083 23.7275 5 24.6859 5 25.8334C5 26.2942 5.37333 26.6667 5.83333 26.6667C6.29333 26.6667 6.66667 26.2942 6.66667 25.8334C6.66667 25.3734 7.04083 25 7.5 25C7.95917 25 8.33333 25.3734 8.33333 25.8334C8.33333 26.2942 8.70667 26.6667 9.16667 26.6667C9.62667 26.6667 10 26.2942 10 25.8334C10 24.8225 9.39417 23.9542 8.52917 23.5609L10.8042 15.2192C10.925 14.775 10.6633 14.3175 10.2192 14.1959ZM33.1642 23.4342L30.8042 14.7809C30.6825 14.3359 30.2217 14.0767 29.7808 14.1959C29.3367 14.3175 29.0742 14.775 29.1958 15.2192L31.4708 23.5609C30.6058 23.9542 30 24.8225 30 25.8334C30 26.2942 30.3725 26.6667 30.8333 26.6667C31.2942 26.6667 31.6667 26.2942 31.6667 25.8334C31.6667 25.3734 32.04 25 32.5 25C32.96 25 33.3333 25.3734 33.3333 25.8334C33.3333 26.2942 33.7058 26.6667 34.1667 26.6667C34.6275 26.6667 35 26.2942 35 25.8334C35 24.6859 34.2192 23.7275 33.1642 23.4342ZM26.1467 12.5H13.8533C12.5533 12.5 11.5367 13.6225 11.6667 14.9167L12.8942 27.1875C13.0058 28.3109 13.9517 29.1667 15.0808 29.1667H24.9192C26.0483 29.1667 26.9942 28.3109 27.1058 27.1875L28.3333 14.9167C28.4625 13.6225 27.4467 12.5 26.1467 12.5Z" fill="#D2CEF9"/>
<path d="M16.6666 16.6666H23.3333V20.8333H16.6666V16.6666Z" fill="#463DA6"/>
<path d="M22.5 8.33333H17.5C16.5834 8.33333 15.8334 7.58333 15.8334 6.66667C15.8334 5.75 16.5834 5 17.5 5H22.5C23.4167 5 24.1667 5.75 24.1667 6.66667C24.1667 7.58333 23.4167 8.33333 22.5 8.33333ZM11.6667 15C11.6667 14.0792 10.9209 13.3333 10 13.3333C9.07921 13.3333 8.33337 14.0792 8.33337 15C8.33337 15.9208 9.07921 16.6667 10 16.6667C10.9209 16.6667 11.6667 15.9208 11.6667 15ZM23.3334 29.1667H16.6667V30.8333H23.3334V29.1667ZM23.3334 32.5H21.6667C21.2067 32.5 20.8334 32.8733 20.8334 33.3333C20.8334 33.7933 21.2067 34.1667 21.6667 34.1667H23.3334V32.5ZM19.1667 33.3333C19.1667 32.8733 18.7934 32.5 18.3334 32.5H16.6667V34.1667H18.3334C18.7934 34.1667 19.1667 33.7933 19.1667 33.3333ZM30 16.6667C30.9209 16.6667 31.6667 15.9208 31.6667 15C31.6667 14.0792 30.9209 13.3333 30 13.3333C29.0792 13.3333 28.3334 14.0792 28.3334 15C28.3334 15.9208 29.0792 16.6667 30 16.6667ZM20.8334 11.0642V10H19.1667V11.0642C18.6709 11.3525 18.3334 11.8842 18.3334 12.5H19.1667H20.8334H21.6667C21.6667 11.885 21.3292 11.3533 20.8334 11.0642Z" fill="#463DA6"/>
<path d="M16.6666 6.66671C16.6666 6.20671 17.04 5.83337 17.5 5.83337C17.96 5.83337 18.3333 6.20671 18.3333 6.66671C18.3333 7.12671 17.96 7.50004 17.5 7.50004C17.04 7.50004 16.6666 7.12671 16.6666 6.66671ZM22.5 7.50004C22.96 7.50004 23.3333 7.12671 23.3333 6.66671C23.3333 6.20671 22.96 5.83337 22.5 5.83337C22.04 5.83337 21.6666 6.20671 21.6666 6.66671C21.6666 7.12671 22.04 7.50004 22.5 7.50004Z" fill="#60C764"/>
</g>
<defs>
<clipPath id="clip0_1127_56638">
<rect width="40" height="40" fill="white"/>
</clipPath>
</defs>
</svg>
