<svg viewBox="0 0 40 40" fill="none" xmlns="http://www.w3.org/2000/svg">
<g clip-path="url(#clip0_1127_56837)">
<path d="M27.1749 23.502L15.8999 30.1645L18.5478 33.5811L29.3957 27.0895C30.3353 26.4916 30.677 25.2103 30.0791 24.2707C29.4812 23.2457 28.1999 22.9041 27.1749 23.502Z" fill="#463DA6"/>
<path d="M30.2501 23.8438L18.9751 30.5063L21.623 33.9229L32.3855 27.4313C33.3251 26.8334 33.6668 25.5521 33.0688 24.6125C32.4709 23.6729 31.1897 23.3313 30.2501 23.8438Z" fill="#716BB4"/>
<path d="M32.727 24.6125L22.1353 30.8479L17.0958 27.9437L19.5728 29.3104C20.6833 29.9083 22.0499 29.7375 22.9041 28.7979C24.0145 27.5166 23.6728 25.552 22.2208 24.7833L11.6291 18.975C10.6895 18.4625 9.49367 18.4625 8.46867 18.975L3.77075 21.7937C3.77075 21.7937 3.77075 21.7937 3.77075 21.8791V31.0187L7.18742 28.8833L20.0853 35.8875C21.1103 36.4 22.3062 36.4 23.3312 35.802L35.1187 28.7125C36.2291 28.0291 36.5708 26.6625 35.8874 25.552C35.2895 24.3562 33.8374 24.0145 32.727 24.6125Z" fill="#D2CEF9"/>
<path d="M22.1355 30.9333L21.0251 30.1646L11.8855 25.0396L18.7188 30.6771C19.7438 31.4458 21.0251 31.5312 22.1355 30.9333Z" fill="#716BB4"/>
<path d="M20.3418 28.7124C19.573 28.2853 19.8293 27.602 20.2564 26.8332C20.6835 26.0645 21.0251 25.4666 21.7939 25.8936C22.5626 26.3207 22.9043 27.2603 22.4772 28.0291C22.1355 28.7978 21.196 29.0541 20.3418 28.7124Z" fill="#716BB4"/>
<path d="M30.677 12.3978C31.4458 11.4583 31.9583 10.2624 31.9583 8.98117C31.9583 6.16242 29.5666 3.77075 26.577 3.77075C24.4416 3.77075 22.5624 4.96659 21.7083 6.84575C20.8541 4.96659 18.9749 3.77075 16.8395 3.77075C13.8499 3.77075 11.4583 6.16242 11.4583 9.06659C11.4583 10.4333 11.9708 11.6291 12.8249 12.5687C17.352 17.7791 21.7083 20.8541 21.7083 20.8541C21.7083 20.8541 26.2353 17.8645 30.677 12.3978Z" fill="#A63D3D"/>
</g>
<defs>
<clipPath id="clip0_1127_56837">
<rect width="40" height="40" fill="white"/>
</clipPath>
</defs>
</svg>
