<svg viewBox="0 0 41 40" fill="none" xmlns="http://www.w3.org/2000/svg">
<g clip-path="url(#clip0_1127_56692)">
<g clip-path="url(#clip1_1127_56692)">
<path d="M6.49963 28.4375H10.8746V30.625H6.49963V28.4375Z" fill="#463DA6"/>
<path d="M29.8336 29.8957H6.50028C4.88956 29.8957 3.58362 28.5897 3.58362 26.979V8.02067C3.58362 6.40994 4.88956 5.104 6.50028 5.104H29.8336C31.4443 5.104 32.7503 6.40994 32.7503 8.02067V26.979C32.7503 28.5897 31.4443 29.8957 29.8336 29.8957Z" fill="#463DA6"/>
<path d="M29.8336 27.7082H6.50028C6.09778 27.7082 5.77112 27.3815 5.77112 26.979V8.02067C5.77112 7.61817 6.09778 7.2915 6.50028 7.2915H29.8336C30.2361 7.2915 30.5628 7.61817 30.5628 8.02067V26.979C30.5628 27.3815 30.2361 27.7082 29.8336 27.7082Z" fill="#716BB4"/>
<path d="M21.8128 10.2085C17.7856 10.2085 14.5211 13.473 14.5211 17.5002C14.5211 21.5273 17.7856 24.7918 21.8128 24.7918C25.84 24.7918 29.1045 21.5273 29.1045 17.5002C29.1045 13.473 25.84 10.2085 21.8128 10.2085ZM21.8128 22.6043C18.9938 22.6043 16.7086 20.3191 16.7086 17.5002C16.7086 14.6812 18.9938 12.396 21.8128 12.396C24.6317 12.396 26.917 14.6812 26.917 17.5002C26.917 20.3191 24.6317 22.6043 21.8128 22.6043Z" fill="#463DA6"/>
<path d="M26.4164 13.9272L26.7103 13.6333C26.9954 13.3482 26.9954 12.8874 26.7103 12.6023C26.4252 12.3172 25.9643 12.3172 25.6792 12.6023L25.3854 12.8961C25.7711 13.1958 26.1167 13.5414 26.4164 13.9272ZM17.2085 13.9272C17.5082 13.5414 17.8538 13.1958 18.2395 12.8961L17.9457 12.6023C17.6606 12.3172 17.1998 12.3172 16.9146 12.6023C16.6295 12.8874 16.6295 13.3482 16.9146 13.6333L17.2085 13.9272ZM15.9791 17.5001C15.9791 17.2529 15.9995 17.0101 16.0294 16.7709H15.6145C15.212 16.7709 14.8854 17.0976 14.8854 17.5001C14.8854 17.9026 15.212 18.2292 15.6145 18.2292H16.0294C15.9995 17.9901 15.9791 17.7473 15.9791 17.5001ZM21.8125 11.6667C22.0596 11.6667 22.3025 11.6872 22.5416 11.7171V11.3022C22.5416 10.8997 22.215 10.573 21.8125 10.573C21.41 10.573 21.0833 10.8997 21.0833 11.3022V11.7171C21.3225 11.6872 21.5653 11.6667 21.8125 11.6667ZM26.4164 21.073C26.1167 21.4587 25.7711 21.8044 25.3854 22.104L25.6792 22.3979C25.8214 22.5401 26.0081 22.6115 26.1947 22.6115C26.3814 22.6115 26.5681 22.5401 26.7103 22.3979C26.9954 22.1128 26.9954 21.652 26.7103 21.3669L26.4164 21.073ZM17.2085 21.073L16.9146 21.3669C16.6295 21.652 16.6295 22.1128 16.9146 22.3979C17.0568 22.5401 17.2435 22.6115 17.4302 22.6115C17.6168 22.6115 17.8035 22.5401 17.9457 22.3979L18.2395 22.104C17.8538 21.8044 17.5082 21.4587 17.2085 21.073ZM28.0104 16.7709H27.5955C27.6254 17.0101 27.6458 17.2529 27.6458 17.5001C27.6458 17.7473 27.6254 17.9901 27.5955 18.2292H28.0104C28.4129 18.2292 28.7395 17.9026 28.7395 17.5001C28.7395 17.0976 28.4129 16.7709 28.0104 16.7709ZM21.8125 23.3334C21.5653 23.3334 21.3225 23.313 21.0833 23.2831V23.698C21.0833 24.1005 21.41 24.4272 21.8125 24.4272C22.215 24.4272 22.5416 24.1005 22.5416 23.698V23.2831C22.3025 23.313 22.0596 23.3334 21.8125 23.3334Z" fill="white"/>
<path d="M9.41695 14.5835C8.61195 14.5835 7.95862 15.2368 7.95862 16.0418V21.8752C7.95862 22.6802 8.61195 23.3335 9.41695 23.3335C10.222 23.3335 10.8753 22.6802 10.8753 21.8752V16.0418C10.8753 15.2368 10.222 14.5835 9.41695 14.5835Z" fill="#463DA6"/>
<path d="M9.41695 13.125C8.61195 13.125 7.95862 13.7783 7.95862 14.5833V20.4167C7.95862 21.2217 8.61195 21.875 9.41695 21.875C10.222 21.875 10.8753 21.2217 10.8753 20.4167V14.5833C10.8753 13.7783 10.222 13.125 9.41695 13.125Z" fill="#D2CEF9"/>
<path d="M28.3753 20.4165C26.4414 20.4165 24.5868 21.1847 23.2193 22.5522C21.8518 23.9196 21.0836 25.7743 21.0836 27.7082C21.0836 29.642 21.8518 31.4967 23.2193 32.8642C24.5868 34.2316 26.4414 34.9998 28.3753 34.9998C30.3092 34.9998 32.1638 34.2316 33.5313 32.8642C34.8987 31.4967 35.667 29.642 35.667 27.7082C35.667 25.7743 34.8987 23.9196 33.5313 22.5522C32.1638 21.1847 30.3092 20.4165 28.3753 20.4165Z" fill="#60C764"/>
<path d="M31.6514 24.3169L27.5017 28.4739L25.5132 26.4905L23.9645 28.0422L27.5046 31.5728L33.2023 25.8656L31.6514 24.3169Z" fill="#DCEDC8"/>
</g>
</g>
<defs>
<clipPath id="clip0_1127_56692">
<rect width="40" height="40" fill="white" transform="translate(0.666626)"/>
</clipPath>
<clipPath id="clip1_1127_56692">
<rect width="35" height="35" fill="white" transform="translate(0.666626)"/>
</clipPath>
</defs>
</svg>
