<svg viewBox="0 0 40 40" fill="none" xmlns="http://www.w3.org/2000/svg">
<g clip-path="url(#clip0_1127_56676)">
<path d="M10.833 14.1665H29.1663V29.1665H10.833V14.1665Z" fill="#60C764"/>
<path d="M1.66699 32.4998H38.3337V34.1665H1.66699V32.4998ZM28.3337 15.8332H32.5003V29.1665H28.3337V15.8332ZM7.50033 15.8332H11.667V29.1665H7.50033V15.8332ZM35.8337 14.1665H4.16699V11.6665L20.0003 4.1665L35.8337 11.6665V14.1665ZM5.00033 29.1665H35.0003V30.8332H5.00033V29.1665Z" fill="#D2CEF9"/>
<path d="M26.6663 14.1668H34.1663V15.8335H26.6663V14.1668ZM5.83301 14.1668H13.333V15.8335H5.83301V14.1668ZM3.33301 30.8335H36.6663V32.5002H3.33301V30.8335ZM19.9997 8.3335C19.5576 8.3335 19.1337 8.50909 18.8212 8.82165C18.5086 9.13421 18.333 9.55814 18.333 10.0002C18.333 10.4422 18.5086 10.8661 18.8212 11.1787C19.1337 11.4912 19.5576 11.6668 19.9997 11.6668C20.4417 11.6668 20.8656 11.4912 21.1782 11.1787C21.4907 10.8661 21.6663 10.4422 21.6663 10.0002C21.6663 9.55814 21.4907 9.13421 21.1782 8.82165C20.8656 8.50909 20.4417 8.3335 19.9997 8.3335Z" fill="#716BB4"/>
<path d="M13.333 14.1665H26.6663V15.8332H13.333V14.1665Z" fill="#43A047"/>
<path d="M22.597 22.971C22.3587 22.7293 22.0653 22.5135 21.7187 22.3227C21.372 22.1302 20.9295 21.926 20.3912 21.7102C19.8528 21.4935 19.4853 21.2827 19.287 21.0752C19.0887 20.8677 18.9895 20.5935 18.9895 20.251C18.9895 19.8818 19.0912 19.5935 19.2937 19.3835C19.4962 19.1735 19.782 19.0685 20.1512 19.0685C20.5245 19.0685 20.8228 19.2035 21.0453 19.471C21.2687 19.7393 21.3803 20.2935 21.3803 20.8343H23.3337C23.3337 19.956 23.1087 19.0918 22.6578 18.541C22.217 18.0002 21.607 17.6727 20.8337 17.5543V15.8335H19.167V17.6152C18.6078 17.7502 18.1403 18.001 17.7678 18.3735C17.2812 18.8602 17.0387 19.4827 17.0387 20.2452C17.0387 20.6868 17.1095 21.0668 17.2512 21.386C17.3928 21.706 17.5912 21.9835 17.8453 22.2202C18.0995 22.4568 18.4053 22.6643 18.7612 22.8477C19.117 23.0302 19.5403 23.2143 20.0312 23.3985C20.522 23.5835 20.8695 23.7843 21.0745 24.0035C21.2795 24.2227 21.382 24.5152 21.382 24.8843C21.382 25.2393 21.267 25.5227 21.0378 25.7327C20.8078 25.9427 20.4953 26.046 20.0987 26.046C19.6212 26.046 19.2553 25.9035 19.0003 25.6185C18.7462 25.3318 18.6187 24.7027 18.6187 24.1668H16.667C16.667 25.0902 16.9203 26.0477 17.4262 26.6035C17.8545 27.0743 18.4412 27.371 19.167 27.5143V29.1668H20.8337V27.5468C21.5787 27.4402 22.1778 27.1743 22.6178 26.7352C23.0953 26.2577 23.3337 25.6368 23.3337 24.871C23.3337 24.461 23.2703 24.1027 23.1445 23.7935C23.0187 23.486 22.8362 23.211 22.597 22.971Z" fill="#E8F5E9"/>
</g>
<defs>
<clipPath id="clip0_1127_56676">
<rect width="40" height="40" fill="white"/>
</clipPath>
</defs>
</svg>
