<svg viewBox="0 0 40 40" fill="none" xmlns="http://www.w3.org/2000/svg">
<g clip-path="url(#clip0_1127_56842)">
<path d="M36.6666 20.4166C36.6666 18.9499 35.8166 17.6999 34.5916 17.0833C34.8416 16.5749 34.9999 16.0166 34.9999 15.4166C34.9999 13.4083 33.4166 11.7833 31.4333 11.6833C31.7666 10.7583 31.8166 9.69159 31.0916 8.50825C30.7749 7.99159 30.3416 7.55825 29.8249 7.24158C28.6416 6.51658 27.5749 6.56659 26.6499 6.89992C26.5499 4.91658 24.9249 3.33325 22.9166 3.33325C22.1999 3.33325 21.5333 3.54159 20.9666 3.89159C20.9249 3.91659 20.8749 3.94159 20.8333 3.95825C20.5749 4.09992 20.2833 4.16659 19.9999 4.16659C19.7166 4.16659 19.4249 4.09992 19.1666 3.95825C19.1249 3.94159 19.0749 3.91659 19.0333 3.89159C18.4666 3.54159 17.7999 3.33325 17.0833 3.33325C15.0749 3.33325 13.4499 4.91658 13.3499 6.89992C12.4249 6.56659 11.3583 6.51658 10.1749 7.24158C9.65825 7.55825 9.22492 7.99159 8.90825 8.50825C8.18325 9.69159 8.23325 10.7583 8.56659 11.6833C6.58325 11.7833 4.99992 13.4083 4.99992 15.4166C4.99992 16.0166 5.15825 16.5749 5.40825 17.0833C4.18325 17.6999 3.33325 18.9499 3.33325 20.4166C3.33325 21.6166 3.90825 22.6749 4.78325 23.3583C4.39992 23.9499 4.16659 24.6583 4.16659 25.4166C4.16659 26.7749 4.89159 27.9499 5.97492 28.6083C5.89159 28.9249 5.83325 29.2416 5.83325 29.5833C5.83325 31.6583 7.50825 33.3333 9.58325 33.3333C9.85825 33.3333 10.1249 33.2999 10.3833 33.2416C11.1749 35.2499 13.1333 36.6666 15.4166 36.6666C16.7416 36.6666 17.9499 36.1916 18.8916 35.3999C18.9749 35.3249 19.0666 35.2666 19.1666 35.2166C19.4249 35.0666 19.7083 34.9999 19.9999 34.9999C20.2916 34.9999 20.5749 35.0666 20.8333 35.2166C20.9333 35.2666 21.0249 35.3249 21.1083 35.3999C22.0499 36.1916 23.2583 36.6666 24.5833 36.6666C26.8666 36.6666 28.8249 35.2499 29.6166 33.2416C29.8749 33.2999 30.1416 33.3333 30.4166 33.3333C32.4916 33.3333 34.1666 31.6583 34.1666 29.5833C34.1666 29.2416 34.1083 28.9249 34.0249 28.6083C35.1083 27.9499 35.8333 26.7749 35.8333 25.4166C35.8333 24.6583 35.5999 23.9499 35.2166 23.3583C36.0916 22.6749 36.6666 21.6166 36.6666 20.4166Z" fill="#463DA6"/>
<path d="M13.3333 10H26.6666V11.6667H13.3333V10ZM16.6666 30.8333H14.9999V27.5H8.33325V22.5H9.99992V25.8333H16.6666V30.8333Z" fill="#D2CEF9"/>
<path d="M13.3333 9.16675C12.8913 9.16675 12.4674 9.34234 12.1548 9.6549C11.8423 9.96746 11.6667 10.3914 11.6667 10.8334C11.6667 11.2754 11.8423 11.6994 12.1548 12.0119C12.4674 12.3245 12.8913 12.5001 13.3333 12.5001C13.7754 12.5001 14.1993 12.3245 14.5118 12.0119C14.8244 11.6994 15 11.2754 15 10.8334C15 10.3914 14.8244 9.96746 14.5118 9.6549C14.1993 9.34234 13.7754 9.16675 13.3333 9.16675ZM9.16667 20.8334C8.72464 20.8334 8.30072 21.009 7.98816 21.3216C7.6756 21.6341 7.5 22.0581 7.5 22.5001C7.5 22.9421 7.6756 23.366 7.98816 23.6786C8.30072 23.9912 8.72464 24.1667 9.16667 24.1667C9.60869 24.1667 10.0326 23.9912 10.3452 23.6786C10.6577 23.366 10.8333 22.9421 10.8333 22.5001C10.8333 22.0581 10.6577 21.6341 10.3452 21.3216C10.0326 21.009 9.60869 20.8334 9.16667 20.8334ZM15.8333 29.1667C15.3913 29.1667 14.9674 29.3423 14.6548 29.6549C14.3423 29.9675 14.1667 30.3914 14.1667 30.8334C14.1667 31.2754 14.3423 31.6994 14.6548 32.0119C14.9674 32.3245 15.3913 32.5001 15.8333 32.5001C16.2754 32.5001 16.6993 32.3245 17.0118 32.0119C17.3244 31.6994 17.5 31.2754 17.5 30.8334C17.5 30.3914 17.3244 29.9675 17.0118 29.6549C16.6993 29.3423 16.2754 29.1667 15.8333 29.1667Z" fill="#A63D3D"/>
<path d="M24.9999 30.8333H23.3333V25.8333H29.9999V22.5H31.6666V27.5H24.9999V30.8333Z" fill="#D2CEF9"/>
<path d="M30.8333 20.8334C30.3913 20.8334 29.9674 21.009 29.6548 21.3216C29.3423 21.6341 29.1667 22.0581 29.1667 22.5001C29.1667 22.9421 29.3423 23.366 29.6548 23.6786C29.9674 23.9912 30.3913 24.1667 30.8333 24.1667C31.2754 24.1667 31.6993 23.9912 32.0118 23.6786C32.3244 23.366 32.5 22.9421 32.5 22.5001C32.5 22.0581 32.3244 21.6341 32.0118 21.3216C31.6993 21.009 31.2754 20.8334 30.8333 20.8334ZM24.1667 29.1667C23.7246 29.1667 23.3007 29.3423 22.9882 29.6549C22.6756 29.9675 22.5 30.3914 22.5 30.8334C22.5 31.2754 22.6756 31.6994 22.9882 32.0119C23.3007 32.3245 23.7246 32.5001 24.1667 32.5001C24.6087 32.5001 25.0326 32.3245 25.3452 32.0119C25.6577 31.6994 25.8333 31.2754 25.8333 30.8334C25.8333 30.3914 25.6577 29.9675 25.3452 29.6549C25.0326 29.3423 24.6087 29.1667 24.1667 29.1667ZM25.8333 9.16675C25.3913 9.16675 24.9674 9.34234 24.6548 9.6549C24.3423 9.96746 24.1667 10.3914 24.1667 10.8334C24.1667 11.2754 24.3423 11.6994 24.6548 12.0119C24.9674 12.3245 25.3913 12.5001 25.8333 12.5001C26.2754 12.5001 26.6993 12.3245 27.0118 12.0119C27.3244 11.6994 27.5 11.2754 27.5 10.8334C27.5 10.3914 27.3244 9.96746 27.0118 9.6549C26.6993 9.34234 26.2754 9.16675 25.8333 9.16675Z" fill="#A63D3D"/>
<path d="M20.8334 3.95825V35.2166C20.5751 35.0666 20.2917 34.9999 20.0001 34.9999C19.7084 34.9999 19.4251 35.0666 19.1667 35.2166V3.95825C19.4251 4.09992 19.7167 4.16659 20.0001 4.16659C20.2834 4.16659 20.5751 4.09992 20.8334 3.95825Z" fill="#716BB4"/>
<path d="M16.6666 21.6666H14.9999V17.4999H10.8333V15.8333H16.6666V21.6666Z" fill="#D2CEF9"/>
<path d="M15.8334 20C15.3914 20 14.9675 20.1756 14.6549 20.4882C14.3423 20.8007 14.1667 21.2246 14.1667 21.6667C14.1667 22.1087 14.3423 22.5326 14.6549 22.8452C14.9675 23.1577 15.3914 23.3333 15.8334 23.3333C16.2754 23.3333 16.6994 23.1577 17.0119 22.8452C17.3245 22.5326 17.5001 22.1087 17.5001 21.6667C17.5001 21.2246 17.3245 20.8007 17.0119 20.4882C16.6994 20.1756 16.2754 20 15.8334 20ZM10.8334 15C10.3914 15 9.96746 15.1756 9.6549 15.4882C9.34234 15.8007 9.16675 16.2246 9.16675 16.6667C9.16675 17.1087 9.34234 17.5326 9.6549 17.8452C9.96746 18.1577 10.3914 18.3333 10.8334 18.3333C11.2754 18.3333 11.6994 18.1577 12.0119 17.8452C12.3245 17.5326 12.5001 17.1087 12.5001 16.6667C12.5001 16.2246 12.3245 15.8007 12.0119 15.4882C11.6994 15.1756 11.2754 15 10.8334 15Z" fill="#A63D3D"/>
<path d="M24.9999 21.6666H23.3333V15.8333H29.1666V17.4999H24.9999V21.6666Z" fill="#D2CEF9"/>
<path d="M24.1667 20C23.7246 20 23.3007 20.1756 22.9882 20.4882C22.6756 20.8007 22.5 21.2246 22.5 21.6667C22.5 22.1087 22.6756 22.5326 22.9882 22.8452C23.3007 23.1577 23.7246 23.3333 24.1667 23.3333C24.6087 23.3333 25.0326 23.1577 25.3452 22.8452C25.6577 22.5326 25.8333 22.1087 25.8333 21.6667C25.8333 21.2246 25.6577 20.8007 25.3452 20.4882C25.0326 20.1756 24.6087 20 24.1667 20ZM29.1667 15C28.7246 15 28.3007 15.1756 27.9882 15.4882C27.6756 15.8007 27.5 16.2246 27.5 16.6667C27.5 17.1087 27.6756 17.5326 27.9882 17.8452C28.3007 18.1577 28.7246 18.3333 29.1667 18.3333C29.6087 18.3333 30.0326 18.1577 30.3452 17.8452C30.6577 17.5326 30.8333 17.1087 30.8333 16.6667C30.8333 16.2246 30.6577 15.8007 30.3452 15.4882C30.0326 15.1756 29.6087 15 29.1667 15Z" fill="#A63D3D"/>
</g>
<defs>
<clipPath id="clip0_1127_56842">
<rect width="40" height="40" fill="white"/>
</clipPath>
</defs>
</svg>
