<svg viewBox="0 0 40 40" fill="none" xmlns="http://www.w3.org/2000/svg">
<g clip-path="url(#clip0_1127_56574)">
<path d="M19.1875 15.125L17.5625 20L19.1875 24.875L17.8306 28.9375H2.9375V11.0625H17.8306L19.1875 15.125Z" fill="#BDE9BF"/>
<path d="M37.0625 11.0625V28.9375H21.0806L22.4375 24.875L20.8125 20L22.4375 15.125L21.0806 11.0625H37.0625Z" fill="#BDE9BF"/>
<path d="M20.8125 10.25L21.0806 11.0625L21.3569 11.875H36.25V28.125H21.3569L21.0806 28.9375L20.8125 29.75H37.875V10.25H20.8125ZM3.75 11.875H18.1069L17.8306 11.0625L17.5625 10.25H2.125V29.75H17.5625L17.8306 28.9375L18.1069 28.125H3.75V11.875Z" fill="#60C764"/>
<path d="M8.625 21.625C9.52246 21.625 10.25 20.8975 10.25 20C10.25 19.1025 9.52246 18.375 8.625 18.375C7.72754 18.375 7 19.1025 7 20C7 20.8975 7.72754 21.625 8.625 21.625Z" fill="#60C764"/>
<path d="M31.375 21.625C32.2725 21.625 33 20.8975 33 20C33 19.1025 32.2725 18.375 31.375 18.375C30.4775 18.375 29.75 19.1025 29.75 20C29.75 20.8975 30.4775 21.625 31.375 21.625Z" fill="#60C764"/>
<path d="M19.1875 15.125L17.5625 20L19.1875 24.875L18.6919 26.37C15.7262 25.7606 13.5 23.1444 13.5 20C13.5 16.8556 15.7262 14.2394 18.6919 13.63L19.1875 15.125Z" fill="#60C764"/>
<path d="M26.5 20C26.5 22.8925 24.615 25.3463 21.9987 26.1831L22.4375 24.875L20.8125 20L22.4375 15.125L21.9987 13.8169C24.615 14.6538 26.5 17.1075 26.5 20Z" fill="#60C764"/>
<path d="M32.9472 11.0625C32.48 11.5809 32.1875 12.2601 32.1875 13.0125C32.1875 14.6277 33.4972 15.9375 35.1125 15.9375C35.8649 15.9375 36.5441 15.645 37.0625 15.1778V11.0625H32.9472Z" fill="#60C764"/>
<path d="M7.05281 10.9999H2.9375V15.1153C3.45588 15.5824 4.13513 15.8749 4.8875 15.8749C6.50275 15.8749 7.8125 14.5652 7.8125 12.9499C7.8125 12.1976 7.52 11.5183 7.05281 10.9999Z" fill="#60C764"/>
<path d="M7.05281 28.9375C7.52 28.4191 7.8125 27.7399 7.8125 26.9875C7.8125 25.3722 6.50275 24.0625 4.8875 24.0625C4.13513 24.0625 3.45588 24.355 2.9375 24.8222V28.9375H7.05281Z" fill="#60C764"/>
<path d="M37.0625 28.9375V24.8222C36.5441 24.355 35.8649 24.0625 35.1125 24.0625C33.4972 24.0625 32.1875 25.3722 32.1875 26.9875C32.1875 27.7399 32.48 28.4191 32.9472 28.9375H37.0625Z" fill="#60C764"/>
</g>
<defs>
<clipPath id="clip0_1127_56574">
<rect width="40" height="40" fill="white"/>
</clipPath>
</defs>
</svg>
