<svg viewBox="0 0 41 40" fill="none" xmlns="http://www.w3.org/2000/svg">
<g clip-path="url(#clip0_1127_56941)">
<path d="M20.6667 36.6667C11.5 36.6667 4 29.1667 4 20C4 10.8333 11.5 3.33334 20.6667 3.33334C24.5833 3.33334 28.4167 4.75001 31.4167 7.33334L29.25 9.83334C26.9167 7.75001 23.8333 6.66668 20.6667 6.66668C13.3333 6.66668 7.33333 12.6667 7.33333 20C7.33333 27.3333 13.3333 33.3333 20.6667 33.3333V36.6667Z" fill="#D2CEF9"/>
<path d="M20.6667 36.6667C11.5 36.6667 4 29.1667 4 20C4 16.0833 5.41667 12.25 8 9.25001L10.5 11.4167C8.41667 13.75 7.33333 16.8333 7.33333 20C7.33333 27.3333 13.3333 33.3333 20.6667 33.3333C28 33.3333 34 27.3333 34 20C34 12.6667 28 6.66668 20.6667 6.66668V3.33334C29.8333 3.33334 37.3333 10.8333 37.3333 20C37.3333 29.1667 29.8333 36.6667 20.6667 36.6667Z" fill="#60C764"/>
<path d="M23.1667 10L16.5 5L23.1667 0V10Z" fill="#60C764"/>
<path d="M15.6666 12.5L17.1666 11.75L21.4166 19.6667L19.9166 20.4167L15.6666 12.5Z" fill="#463DA6"/>
<path d="M20 19.3333L21.4166 20.75L17.0833 25L15.6666 23.5833L20 19.3333Z" fill="#463DA6"/>
<path d="M19 20C19 20.9167 19.75 21.6667 20.6667 21.6667C21.5833 21.6667 22.3333 20.9167 22.3333 20C22.3333 19.0833 21.5833 18.3333 20.6667 18.3333C19.75 18.3333 19 19.0833 19 20Z" fill="#463DA6"/>
<path d="M19.8333 20C19.8333 20.5 20.1666 20.8333 20.6666 20.8333C21.1666 20.8333 21.4999 20.5 21.4999 20C21.4999 19.5 21.1666 19.1667 20.6666 19.1667C20.1666 19.1667 19.8333 19.5 19.8333 20Z" fill="#60C764"/>
</g>
<defs>
<clipPath id="clip0_1127_56941">
<rect width="40" height="40" fill="white" transform="translate(0.666626)"/>
</clipPath>
</defs>
</svg>
