<svg viewBox="0 0 40 40" fill="none" xmlns="http://www.w3.org/2000/svg">
<g clip-path="url(#clip0_1127_56847)">
<path d="M19.9999 36.6666C10.8333 36.6666 3.33325 29.1666 3.33325 19.9999C3.33325 10.8333 10.8333 3.33325 19.9999 3.33325C23.9166 3.33325 27.7499 4.74992 30.7499 7.33325L28.5833 9.83325C26.2499 7.74992 23.1666 6.66659 19.9999 6.66659C12.6666 6.66659 6.66659 12.6666 6.66659 19.9999C6.66659 27.3333 12.6666 33.3333 19.9999 33.3333V36.6666Z" fill="#D2CEF9"/>
<path d="M19.9999 36.6666C10.8333 36.6666 3.33325 29.1666 3.33325 19.9999C3.33325 16.0833 4.74992 12.2499 7.33325 9.24992L9.83325 11.4166C7.74992 13.7499 6.66659 16.8333 6.66659 19.9999C6.66659 27.3333 12.6666 33.3333 19.9999 33.3333C27.3333 33.3333 33.3333 27.3333 33.3333 19.9999C33.3333 12.6666 27.3333 6.66659 19.9999 6.66659V3.33325C29.1666 3.33325 36.6666 10.8333 36.6666 19.9999C36.6666 29.1666 29.1666 36.6666 19.9999 36.6666Z" fill="#60C764"/>
<path d="M22.4999 10L15.8333 5L22.4999 0V10Z" fill="#60C764"/>
<path d="M15 12.5L16.5 11.75L20.75 19.6667L19.25 20.4167L15 12.5Z" fill="#463DA6"/>
<path d="M19.3333 19.3333L20.75 20.7499L16.4167 24.9999L15 23.5833L19.3333 19.3333Z" fill="#463DA6"/>
<path d="M18.3333 19.9999C18.3333 20.9166 19.0833 21.6666 19.9999 21.6666C20.9166 21.6666 21.6666 20.9166 21.6666 19.9999C21.6666 19.0833 20.9166 18.3333 19.9999 18.3333C19.0833 18.3333 18.3333 19.0833 18.3333 19.9999Z" fill="#463DA6"/>
<path d="M19.1667 20.0001C19.1667 20.5001 19.5001 20.8334 20.0001 20.8334C20.5001 20.8334 20.8334 20.5001 20.8334 20.0001C20.8334 19.5001 20.5001 19.1667 20.0001 19.1667C19.5001 19.1667 19.1667 19.5001 19.1667 20.0001Z" fill="#60C764"/>
</g>
<defs>
<clipPath id="clip0_1127_56847">
<rect width="40" height="40" fill="white"/>
</clipPath>
</defs>
</svg>
