<svg viewBox="0 0 100 33" fill="none" xmlns="http://www.w3.org/2000/svg">
<path d="M0 33V0H13.8139C15.2762 0 16.614 0.310941 17.8274 0.932825C19.0408 1.5236 20.0986 2.33205 21.0009 3.35815C21.9033 4.35315 22.6032 5.48806 23.1009 6.76293C23.5988 8.00667 23.8477 9.28154 23.8477 10.5875C23.8477 12.3909 23.4433 14.1166 22.6343 15.7646C21.8252 17.3815 20.6899 18.703 19.2275 19.7291C17.7652 20.7241 16.054 21.2216 14.0939 21.2216H4.20019V30.5997L0 33ZM4.20019 18.3828H14.0939C15.2451 18.3828 16.4985 17.6824 17.3385 17.0605C18.2097 16.4387 19.0752 15.6456 19.5419 14.5884C20.0395 13.5312 20.5355 12.1096 20.5355 10.8659C20.5355 10.2365 20.4744 9.29476 20.2763 8.55183C20.0632 7.75322 19.7023 7.15744 19.4122 6.62587C18.8522 5.56869 17.5352 4.42832 16.6329 3.83754C15.7306 3.24676 14.6695 2.93206 13.5806 2.93206H4.20019V18.3828Z" fill="white"/>
<path d="M47.2932 32.5974C45.4491 32.5974 43.761 32.2697 42.2293 31.6143C40.7291 30.9278 39.4163 30.0071 38.291 28.8524C37.1968 27.6666 36.3374 26.309 35.7121 24.78C35.1182 23.2507 34.8213 21.6279 34.8213 19.9115C34.8213 17.6022 35.3527 15.4956 36.4155 13.592C37.4782 11.6883 38.9474 10.1592 40.8227 9.00447C42.7296 7.84982 44.9018 7.27246 47.3402 7.27246C49.8093 7.27246 51.9504 7.8654 53.7635 9.0513C55.6077 10.206 57.0299 11.7351 58.0302 13.6388C59.0618 15.5113 59.5774 17.5397 59.5774 19.7243C59.5774 20.0364 59.5618 20.3484 59.5307 20.6605C59.5307 20.9414 59.5149 21.1598 59.4838 21.3159H39.1818C39.3068 22.9075 39.7443 24.3273 40.4946 25.5757C41.276 26.7928 42.2763 27.7603 43.4955 28.4781C44.7143 29.1646 46.0271 29.5078 47.4338 29.5078C48.9343 29.5078 50.3407 29.1332 51.6535 28.3844C52.9977 27.6353 54.8856 25.4351 55.3856 24.218L58.4674 26.0577C57.7761 27.2777 56.6235 28.6653 55.5921 29.6015C54.5607 30.5378 53.326 31.2711 51.8879 31.8017C50.4816 32.3321 48.9499 32.5974 47.2932 32.5974ZM39.041 18.4604H55.7327C55.6077 16.8688 55.1546 15.4645 54.3729 14.2474C53.5916 13.0302 52.5913 12.0784 51.3724 11.3919C50.1532 10.7053 48.8091 10.362 47.3402 10.362C45.9021 10.362 44.5738 10.7053 43.3546 11.3919C42.1357 12.0784 41.1355 13.0302 40.3541 14.2474C39.6038 15.4645 39.166 16.8688 39.041 18.4604Z" fill="white"/>
<path d="M87.7158 32.5974C85.8717 32.5974 84.1836 32.2697 82.6519 31.6143C81.1517 30.9278 79.8389 30.0071 78.7136 28.8524C77.6194 27.6666 76.76 26.309 76.1347 24.78C75.5408 23.2507 75.2439 21.6279 75.2439 19.9115C75.2439 17.6022 75.7753 15.4956 76.8381 13.592C77.9008 11.6883 79.37 10.1592 81.2453 9.00447C83.1522 7.84982 85.3244 7.27246 87.7628 7.27246C90.2319 7.27246 92.373 7.8654 94.1861 9.0513C96.0303 10.206 97.4525 11.7351 98.4528 13.6388C99.4844 15.5113 100 17.5397 100 19.7243C100 20.0364 99.9844 20.3484 99.9533 20.6605C99.9533 20.9414 99.9375 21.1598 99.9064 21.3159H79.6044C79.7294 22.9075 80.1669 24.3273 80.9172 25.5757C81.6986 26.7928 82.6989 27.7603 83.9181 28.4781C85.1369 29.1646 86.4497 29.5078 87.8564 29.5078C89.3569 29.5078 90.7633 29.1332 92.0761 28.3844C93.4203 27.6353 95.295 25.4207 95.795 24.2036L98.8911 26.0865C98.1135 27.2633 97.0775 28.6653 96.0147 29.6015C94.9833 30.5378 93.7486 31.2711 92.3105 31.8017C90.9042 32.3321 89.3725 32.5974 87.7158 32.5974ZM79.4636 18.4604H96.1553C96.0303 16.8688 95.5772 15.4645 94.7955 14.2474C94.0142 13.0302 93.0139 12.0784 91.795 11.3919C90.5758 10.7053 89.2317 10.362 87.7628 10.362C86.3247 10.362 84.9964 10.7053 83.7772 11.3919C82.5583 12.0784 81.5581 13.0302 80.7767 14.2474C80.0264 15.4645 79.5886 16.8688 79.4636 18.4604Z" fill="white"/>
<path d="M75.311 11.3417C73.248 11.3729 71.4194 11.9034 69.8252 12.9333C68.2622 13.9319 67.1527 15.3207 66.4963 17.0995V30.4849L62.4016 32.957V9.32882L65.8002 7.18652L66.2149 13.4014C67.0588 11.7162 68.1685 10.3587 69.5438 9.32882C70.9505 8.26776 72.4197 7.67483 73.9513 7.54998C74.2638 7.54998 74.5294 7.54998 74.7483 7.54998C74.9672 7.54998 75.1546 7.56559 75.311 7.59681V11.3417Z" fill="white"/>
<path fill-rule="evenodd" clip-rule="evenodd" d="M30.874 3.16409L27.9812 3.16406L27.7899 7.31486L30.9725 5.48098L30.874 3.16409ZM31.0431 7.14195L27.7094 9.06292L26.6992 30.9843L29.3922 32.5112L32.0563 30.9843L31.0431 7.14195Z" fill="white"/>
</svg>
