<svg viewBox="0 0 100 33" fill="none" xmlns="http://www.w3.org/2000/svg">
<path d="M0 33V0H13.8139C15.2762 0 16.614 0.310941 17.8274 0.932825C19.0408 1.5236 20.0986 2.33205 21.0009 3.35815C21.9033 4.35315 22.6032 5.48806 23.1009 6.76293C23.5988 8.00667 23.8477 9.28154 23.8477 10.5875C23.8477 12.3909 23.4433 14.1166 22.6343 15.7646C21.8252 17.3815 20.6899 18.703 19.2275 19.7291C17.7652 20.7241 16.054 21.2216 14.0939 21.2216H4.20019V30.5997L0 33ZM4.20019 18.3828H14.0939C15.2451 18.3828 16.4985 17.6824 17.3385 17.0605C18.2097 16.4387 19.0752 15.6456 19.5419 14.5884C20.0395 13.5312 20.5355 12.1096 20.5355 10.8659C20.5355 10.2365 20.4744 9.29476 20.2763 8.55183C20.0632 7.75322 19.7023 7.15744 19.4122 6.62587C18.8522 5.56869 17.5352 4.42832 16.6329 3.83754C15.7306 3.24676 14.6695 2.93206 13.5806 2.93206H4.20019V18.3828Z" fill="#463DA6"/>
<path d="M47.2942 32.5971C45.45 32.5971 43.762 32.2694 42.2303 31.614C40.73 30.9276 39.4173 30.0069 38.292 28.8521C37.1978 27.6664 36.3384 26.3087 35.7131 24.7798C35.1192 23.2505 34.8223 21.6277 34.8223 19.9113C34.8223 17.6019 35.3537 15.4954 36.4164 13.5917C37.4792 11.6881 38.9484 10.1589 40.8236 9.00423C42.7306 7.84957 44.9028 7.27222 47.3411 7.27222C49.8103 7.27222 51.9514 7.86515 53.7645 9.05106C55.6086 10.2057 57.0309 11.7349 58.0311 13.6386C59.0628 15.511 59.5784 17.5395 59.5784 19.724C59.5784 20.0361 59.5628 20.3482 59.5317 20.6603C59.5317 20.9411 59.5159 21.1596 59.4847 21.3156H39.1828C39.3078 22.9073 39.7453 24.327 40.4956 25.5754C41.277 26.7925 42.2773 27.7601 43.4964 28.4779C44.7153 29.1643 46.0281 29.5076 47.4348 29.5076C48.9353 29.5076 50.3417 29.133 51.6545 28.3842C52.9986 27.6351 54.8866 25.4349 55.3866 24.2178L58.4683 26.0575C57.7771 27.2775 56.6245 28.665 55.5931 29.6013C54.5617 30.5375 53.327 31.2708 51.8889 31.8015C50.4825 32.3318 48.9509 32.5971 47.2942 32.5971ZM39.042 18.4601H55.7336C55.6086 16.8685 55.1556 15.4642 54.3739 14.2471C53.5925 13.03 52.5922 12.0782 51.3734 11.3916C50.1542 10.7051 48.81 10.3618 47.3411 10.3618C45.9031 10.3618 44.5748 10.7051 43.3556 11.3916C42.1367 12.0782 41.1364 13.03 40.355 14.2471C39.6048 15.4642 39.167 16.8685 39.042 18.4601Z" fill="#463DA6"/>
<path d="M87.7161 32.5971C85.8719 32.5971 84.1839 32.2694 82.6522 31.614C81.1519 30.9276 79.8391 30.0069 78.7139 28.8521C77.6197 27.6664 76.7603 26.3087 76.135 24.7798C75.5411 23.2505 75.2441 21.6277 75.2441 19.9113C75.2441 17.6019 75.7755 15.4954 76.8383 13.5917C77.9011 11.6881 79.3703 10.1589 81.2455 9.00423C83.1525 7.84957 85.3247 7.27222 87.763 7.27222C90.2322 7.27222 92.3733 7.86515 94.1863 9.05106C96.0305 10.2057 97.4527 11.7349 98.453 13.6386C99.4847 15.511 100 17.5395 100 19.724C100 20.0361 99.9847 20.3482 99.9536 20.6603C99.9536 20.9411 99.9377 21.1596 99.9066 21.3156H79.6047C79.7297 22.9073 80.1672 24.327 80.9175 25.5754C81.6989 26.7925 82.6991 27.7601 83.9183 28.4779C85.1372 29.1643 86.45 29.5076 87.8566 29.5076C89.3572 29.5076 90.7636 29.133 92.0763 28.3842C93.4205 27.6351 95.2952 25.4205 95.7952 24.2034L98.8914 26.0862C98.1137 27.2631 97.0777 28.665 96.015 29.6013C94.9836 30.5375 93.7489 31.2708 92.3108 31.8015C90.9044 32.3318 89.3727 32.5971 87.7161 32.5971ZM79.4639 18.4601H96.1555C96.0305 16.8685 95.5775 15.4642 94.7958 14.2471C94.0144 13.03 93.0141 12.0782 91.7952 11.3916C90.5761 10.7051 89.2319 10.3618 87.763 10.3618C86.325 10.3618 84.9966 10.7051 83.7775 11.3916C82.5586 12.0782 81.5583 13.03 80.7769 14.2471C80.0266 15.4642 79.5889 16.8685 79.4639 18.4601Z" fill="#463DA6"/>
<path d="M75.3118 11.3417C73.2487 11.3729 71.4201 11.9034 69.8259 12.9333C68.2629 13.9319 67.1534 15.3207 66.4971 17.0995V30.4849L62.4023 32.957V9.32882L65.8009 7.18652L66.2157 13.4014C67.0596 11.7162 68.1693 10.3587 69.5446 9.32882C70.9512 8.26776 72.4204 7.67483 73.9521 7.54998C74.2646 7.54998 74.5301 7.54998 74.749 7.54998C74.9679 7.54998 75.1554 7.56559 75.3118 7.59681V11.3417Z" fill="#463DA6"/>
<path fill-rule="evenodd" clip-rule="evenodd" d="M30.874 3.16434L27.9812 3.16431L27.7899 7.31511L30.9725 5.48122L30.874 3.16434ZM31.0431 7.14219L27.7094 9.06317L26.6992 30.9845L29.3922 32.5115L32.0563 30.9845L31.0431 7.14219Z" fill="#463DA6"/>
</svg>
