<svg viewBox="0 0 40 40" fill="none" xmlns="http://www.w3.org/2000/svg">
<g clip-path="url(#clip0_1127_56936)">
<path opacity="0.3" d="M5.83325 17.5H18.3333V19.1667H5.83325V17.5ZM5.83325 13.3333H22.4999V15H5.83325V13.3333ZM5.83325 21.6667H21.6666V23.3333H5.83325V21.6667Z" fill="#D2CEF9"/>
<path opacity="0.3" d="M15.8334 35.8333C15.3334 35.8333 14.9168 35.6667 14.5834 35.25C14.0001 34.5833 14.0001 33.5 14.7501 32.9167L22.2501 26.25C22.9168 25.6667 24.0001 25.6667 24.5834 26.4167C25.1668 27.0833 25.1668 28.1667 24.4168 28.75L16.9168 35.4167C16.5834 35.6667 16.2501 35.8333 15.8334 35.8333Z" fill="#D2CEF9"/>
<path d="M30.8333 5C32.6667 5 34.1667 6.5 34.1667 8.33333C34.1667 10.1667 32.6667 11.6667 30.8333 11.6667C29 11.6667 27.5 10.1667 27.5 8.33333C27.5 6.5 29 5 30.8333 5ZM32.9167 21.6667H27.0833C26.4167 21.6667 25.8333 21.0833 25.8333 20.4167L25 15V14.1667L20.0833 10H14.75C14.0833 10.0833 13.4167 9.58333 13.3333 8.91667C13.25 8.25 13.75 7.58333 14.4167 7.5H20.25C20.5833 7.5 20.8333 7.5 21.0833 7.66667L26.0833 11C26.25 11.0833 27.5833 12.3333 27.5833 12.3333C27.75 12.5 28.3333 13.8333 28.3333 14.0833V19.0833H32.9167C33.5833 19.0833 34.1667 19.6667 34.1667 20.3333C34.1667 21 33.5833 21.6667 32.9167 21.6667ZM23.3333 29.1667H14.1667C13.25 29.1667 12.5 28.4167 12.5 27.5C12.5 26.5833 13.25 25.8333 14.1667 25.8333H20.4167L16.4167 20.4167L20.6667 17.5L24.8333 26.6667C25.1667 27.1667 25.1667 27.8333 24.8333 28.3333C24.5 28.8333 23.9167 29.1667 23.3333 29.1667Z" fill="#D2CEF9"/>
<path d="M18.7501 21.6667C17.8334 21.6667 17.0001 21.25 16.4167 20.5C15.4167 19.25 15.7501 17.4167 17.0001 16.4167L23.5001 11.5833C24.7501 10.5833 26.5834 10.9167 27.5834 12.1667C28.5834 13.4167 28.2501 15.25 27.0001 16.25L20.5001 21.0833C20.0001 21.5 19.3334 21.6667 18.7501 21.6667Z" fill="#FFB74D"/>
<path d="M25.4167 17.4167L28.3334 15.25V14.1667C28.3334 14.1667 28.5001 12.75 27.7501 12C26.8334 11.0833 25.0834 10.4167 25.0834 10.4167L17.0001 16.4167C15.7501 17.4167 15.4167 19.25 16.4167 20.5C17.0001 21.25 17.8334 21.6667 18.7501 21.6667C19.3334 21.6667 20.0001 21.5 20.5001 21.0833L25.4167 17.4167Z" fill="#60C764"/>
<path d="M16.5 20.5833L20.4167 25.8333H24.4167L21.8333 20.1667L18.6667 15.25L17.0833 16.4167C15.8333 17.4167 15.5 19.25 16.5 20.5C16.4167 20.5 16.5 20.5833 16.5 20.5833Z" fill="#463DA6"/>
</g>
<defs>
<clipPath id="clip0_1127_56936">
<rect width="40" height="40" fill="white"/>
</clipPath>
</defs>
</svg>
