<svg viewBox="0 0 40 40" fill="none" xmlns="http://www.w3.org/2000/svg">
<g clip-path="url(#clip0_1127_56584)">
<path d="M27.3125 29.75L16.75 33.8125L12.6875 32.1875V26.5L16.75 30.5625L27.3125 26.5V29.75Z" fill="#716BB4"/>
<path d="M18.4562 31.2938L20.1624 27.5562L13.9062 24.6313C12.8499 24.1438 11.7124 24.6313 11.2249 25.6063C10.7374 26.6625 11.2249 27.8813 12.1999 28.2875L18.4562 31.2938Z" fill="#716BB4"/>
<path d="M14.7186 31.6187L16.4249 27.8812L10.1686 24.9562C9.11239 24.4687 7.97489 24.9562 7.48739 25.9312C6.99989 26.9875 7.48739 28.2062 8.46239 28.6125L14.7186 31.6187Z" fill="#716BB4"/>
<path d="M3.91255 26.9875C4.3188 25.9313 5.53755 25.4438 6.5938 25.9313L13.0938 28.775C13.0126 29.425 13.1751 30.075 13.3376 30.6438C14.3938 33.4063 17.0751 33.1625 18.2938 32.675L25.8501 29.75C26.0938 29.6688 26.2563 29.5063 26.3376 29.2625C26.5001 28.8563 26.3376 28.3688 25.9313 28.2063C25.7688 28.125 25.5251 28.125 25.3626 28.2063H25.2813L17.7251 31.1313C17.4813 31.2125 15.5313 31.9438 14.8001 30.075C14.7188 29.9125 14.7188 29.75 14.6376 29.5875C14.4751 28.45 15.4501 27.8 16.0188 27.5563L25.6876 23.7375C28.9376 22.275 36.2501 25.4438 36.2501 25.4438L33.4876 32.2688L30.4813 30.9688L19.8376 35.275C19.2688 35.5188 18.6188 35.5188 18.0501 35.3563C17.9688 35.3563 17.8063 35.275 17.7251 35.275L4.9688 29.6688C3.91255 29.2625 3.5063 28.0438 3.91255 26.9875Z" fill="#D2CEF9"/>
<path d="M4.62671 4.5625L15.225 20.8125L28.836 11.9351L24.0276 4.5625H4.62671Z" fill="#81C784"/>
<path d="M22.0873 4.5625L26.587 11.4614L15.6986 18.5635L6.56615 4.5625H4.62671L15.225 20.8125L28.836 11.9351L24.0276 4.5625H22.0873Z" fill="#1B5E20"/>
<path d="M14.7077 16.3003C14.2565 16.5946 13.9406 17.0561 13.8297 17.5833C13.7187 18.1104 13.8217 18.6601 14.116 19.1113C14.4103 19.5626 14.8718 19.8784 15.3989 19.9894C15.9261 20.1004 16.4757 19.9974 16.927 19.7031C17.3782 19.4088 17.6941 18.9473 17.805 18.4201C17.916 17.893 17.813 17.3433 17.5187 16.8921C17.2245 16.4408 16.763 16.125 16.2358 16.014C15.7086 15.903 15.159 16.006 14.7077 16.3003Z" fill="#1B5E20"/>
<path d="M4.12207 4.5625L21.9638 22.4034L32.9658 11.4013L26.1278 4.5625H4.12207Z" fill="#A5D6A7"/>
<path d="M22.5138 11.9513C22.222 12.2431 22.0581 12.6389 22.0581 13.0515C22.0581 13.4642 22.222 13.8599 22.5138 14.1517C22.8056 14.4435 23.2014 14.6075 23.614 14.6074C24.0267 14.6074 24.4224 14.4435 24.7142 14.1517C25.006 13.8599 25.1699 13.4641 25.1699 13.0515C25.1699 12.6388 25.006 12.2431 24.7142 11.9513C24.4224 11.6595 24.0266 11.4956 23.614 11.4956C23.2013 11.4956 22.8056 11.6595 22.5138 11.9513Z" fill="#388E3C"/>
<path d="M21.0668 21.3707L23.8082 18.6293C23.7172 18.4611 23.6091 18.2994 23.4678 18.1573C22.6748 17.3643 21.3886 17.3643 20.5948 18.1573C19.8018 18.9503 19.8018 20.2364 20.5948 21.0303C20.737 21.1724 20.8986 21.2797 21.0668 21.3707ZM29.1918 13.2457L31.9332 10.5043C31.8422 10.3361 31.7341 10.1744 31.5928 10.0323C30.7998 9.23925 29.5136 9.23925 28.7198 10.0323C27.9268 10.8253 27.9268 12.1114 28.7198 12.9052C28.862 13.0474 29.0236 13.1547 29.1918 13.2457ZM13.5943 4.5625C12.4885 6.36137 12.703 8.74281 14.2613 10.3012C16.0846 12.1244 19.0396 12.1244 20.8629 10.3012C22.4213 8.74281 22.6366 6.36137 21.5308 4.5625H13.5943Z" fill="#388E3C"/>
<path d="M23.9268 4.5625L30.7656 11.4013L21.9638 20.2031L6.32313 4.5625H4.12207L21.9638 22.4034L32.9658 11.4013L26.1278 4.5625H23.9268Z" fill="#388E3C"/>
<path d="M22.5248 11.9664C22.3807 12.1105 22.2664 12.2815 22.1884 12.4698C22.1104 12.6581 22.0703 12.8599 22.0703 13.0637C22.0703 13.2675 22.1104 13.4693 22.1884 13.6576C22.2664 13.8459 22.3807 14.0169 22.5249 14.161C22.669 14.3051 22.84 14.4195 23.0283 14.4974C23.2166 14.5754 23.4184 14.6156 23.6222 14.6156C23.826 14.6156 24.0278 14.5754 24.2161 14.4974C24.4044 14.4194 24.5754 14.3051 24.7195 14.161C24.8636 14.0169 24.9779 13.8458 25.0559 13.6575C25.1339 13.4693 25.1741 13.2675 25.174 13.0637C25.174 12.8599 25.1339 12.6581 25.0559 12.4698C24.9779 12.2815 24.8636 12.1104 24.7195 11.9663C24.5754 11.8222 24.4043 11.7079 24.216 11.6299C24.0277 11.5519 23.8259 11.5118 23.6221 11.5118C23.4184 11.5118 23.2166 11.552 23.0283 11.6299C22.84 11.7079 22.6689 11.8223 22.5248 11.9664Z" fill="#388E3C"/>
</g>
<defs>
<clipPath id="clip0_1127_56584">
<rect width="40" height="40" fill="white"/>
</clipPath>
</defs>
</svg>
