<svg viewBox="0 0 41 40" fill="none" xmlns="http://www.w3.org/2000/svg">
<g clip-path="url(#clip0_1127_56946)">
<path d="M19.4893 6.66666C20.87 6.66666 21.9893 5.54737 21.9893 4.16666C21.9893 2.78594 20.87 1.66666 19.4893 1.66666C18.1085 1.66666 16.9893 2.78594 16.9893 4.16666C16.9893 5.54737 18.1085 6.66666 19.4893 6.66666Z" fill="#D2CEF9"/>
<path d="M19.9108 38.3333C22.4422 38.3333 24.4942 36.2813 24.4942 33.75C24.4942 31.2187 22.4422 29.1667 19.9108 29.1667C17.3795 29.1667 15.3275 31.2187 15.3275 33.75C15.3275 36.2813 17.3795 38.3333 19.9108 38.3333Z" fill="#D2CEF9"/>
<path d="M23.66 16.6633L22.9567 11.3675L24.4983 11.625V9.08916L14.505 7.42416L14.5083 9.96833L16.1783 10.2442L17.0725 16.6667H23.6625L23.66 16.6633Z" fill="#60C764"/>
<path d="M23.6625 16.6667H17.0725L18.6892 28.0367C18.7492 28.6842 19.2942 29.1708 19.9325 29.1708C19.9708 29.1708 20.01 29.1692 20.0492 29.165C20.7367 29.1017 21.2425 28.4925 21.1783 27.805L20.3808 19.1592H21.9867L29.09 26.3367C29.3292 26.5533 29.6292 26.66 29.9283 26.66C30.2692 26.66 30.6092 26.5217 30.8558 26.2492C31.3192 25.7367 31.2792 24.9467 30.7675 24.4833L23.6625 16.6667Z" fill="#463DA6"/>
<path d="M8.13724 8.35153L8.13724 8.35152L8.13455 8.35107C7.72645 8.28255 7.45025 7.89645 7.51832 7.487C7.58591 7.0805 7.96848 6.8049 8.38103 6.87067L14.0018 7.8434V9.36911L8.13724 8.35153Z" fill="#D2CEF9" stroke="#D2CEF9"/>
<path d="M31.7069 10.8007L31.7071 10.8007C32.115 10.8686 32.3914 11.2546 32.3236 11.6642C32.262 12.0305 31.9444 12.2908 31.585 12.2908C31.5453 12.2908 31.5036 12.2875 31.4597 12.2801L25.0017 11.2024V9.682L31.7069 10.8007Z" fill="#D2CEF9" stroke="#D2CEF9"/>
</g>
<defs>
<clipPath id="clip0_1127_56946">
<rect width="40" height="40" fill="white" transform="translate(0.333374)"/>
</clipPath>
</defs>
</svg>
