<svg viewBox="0 0 40 40" fill="none" xmlns="http://www.w3.org/2000/svg">
<g clip-path="url(#clip0_1127_56633)">
<g clip-path="url(#clip1_1127_56633)">
<path d="M16.6667 14.9834V28.3167C16.6667 28.775 16.2917 29.15 15.8334 29.15H6.66671C6.59171 29.15 6.52504 29.1417 6.45837 29.1167C6.10004 29.0334 5.83337 28.7 5.83337 28.3167V14.9834C5.83337 14.525 6.20837 14.15 6.66671 14.15H15.8334C16.2917 14.15 16.6667 14.525 16.6667 14.9834Z" fill="#60C764"/>
<path d="M13.2841 12.1258C13.1166 11.2866 12.4874 10.6158 11.6908 10.4483C10.3066 10.155 9.13245 11.2033 9.13245 12.5033C9.13245 12.9225 9.25828 13.2583 9.42578 13.5941C9.57411 13.8166 9.45078 14.0925 9.18995 14.1558H13.2374C13.0058 14.0925 12.8841 13.8175 13.0324 13.5941C13.2841 13.1741 13.4099 12.6708 13.2841 12.1258Z" fill="#60C764"/>
<path d="M13.2841 31.1775C13.1166 32.0166 12.4874 32.6875 11.6908 32.855C10.3066 33.1483 9.13245 32.1 9.13245 30.8C9.13245 30.3808 9.25828 30.045 9.42578 29.7091C9.57411 29.4866 9.45078 29.2108 9.18995 29.1475H13.2374C13.0058 29.2108 12.8841 29.4858 13.0324 29.7091C13.2841 30.1291 13.4099 30.6325 13.2841 31.1775Z" fill="#60C764"/>
<path d="M18.6959 24.0992C19.5351 23.9317 20.2059 23.3025 20.3734 22.5058C20.6667 21.1217 19.6184 19.9475 18.3184 19.9475C17.8992 19.9475 17.5634 20.0733 17.2276 20.2408C17.0051 20.3892 16.7292 20.2658 16.6659 20.005V24.0525C16.7292 23.8208 17.0042 23.6992 17.2276 23.8475C17.6476 24.0992 18.1509 24.225 18.6959 24.0992Z" fill="#60C764"/>
<path d="M22.5 14.1483C22.04 14.1483 21.6666 14.5216 21.6666 14.9816V20.005C21.73 20.2658 22.005 20.3891 22.2283 20.2408C22.5641 20.0733 22.8991 19.9475 23.3191 19.9475C24.6191 19.9475 25.6675 21.1216 25.3741 22.5058C25.2066 23.3025 24.535 23.9316 23.6966 24.0991C23.1516 24.225 22.6483 24.0991 22.2291 23.8475C22.0066 23.6991 21.7308 23.8208 21.6675 24.0525V28.315C21.6675 28.775 22.0408 29.1483 22.5008 29.1483H33.3341C33.7941 29.1483 34.1675 28.775 34.1675 28.315V14.9816C34.1675 14.5216 33.7941 14.1483 33.3341 14.1483H22.5Z" fill="#463DA6"/>
<path d="M29.9859 12.1258C29.8184 11.2866 29.1892 10.6158 28.3925 10.4483C27.0075 10.155 25.8334 11.2033 25.8334 12.5033C25.8334 12.9225 25.9592 13.2583 26.1267 13.5941C26.275 13.8166 26.1517 14.0925 25.8909 14.1558H29.9384C29.7067 14.0925 29.585 13.8175 29.7334 13.5941C29.9859 13.1741 30.1117 12.6708 29.9859 12.1258Z" fill="#463DA6"/>
<path d="M29.9859 31.1775C29.8184 32.0166 29.1892 32.6875 28.3925 32.855C27.0075 33.1491 25.8334 32.1008 25.8334 30.8C25.8334 30.3808 25.9592 30.045 26.1267 29.7091C26.275 29.4866 26.1517 29.2108 25.8909 29.1475H29.9384C29.7067 29.2108 29.585 29.4858 29.7334 29.7091C29.9859 30.1291 30.1117 30.6325 29.9859 31.1775Z" fill="#463DA6"/>
<path d="M31.34 27.65C31.9067 28.3584 32.6734 28.875 33.54 29.1167C33.8984 29.0334 34.165 28.7 34.165 28.3167V22.4917L33.3317 23.325H32.29L29.7317 21.375C29.19 20.9417 27.7084 21.4584 27.7084 21.4584L31.34 27.65Z" fill="#0E0A56" fill-opacity="0.3"/>
<path d="M27.7942 21.5983L31.3434 25.9674C31.9659 26.7541 32.8417 27.3008 33.8217 27.5149L40 29.1483V23.7849L38.6542 23.2608L35.5784 18.5133C35.3792 18.2066 35.0784 17.9808 34.7284 17.8766L34.1667 17.6899V20.8149L33.3334 21.6483H32.2917L29.7309 19.6941C29.1959 19.2574 28.4192 19.2883 27.9209 19.7666C27.4125 20.2533 27.3575 21.0466 27.7942 21.5983Z" fill="#D2CEF9"/>
<path d="M8.65837 27.65C8.09171 28.3584 7.32504 28.875 6.45837 29.1167C6.10004 29.0334 5.83337 28.7 5.83337 28.3167V22.4917L6.66671 23.325H7.70837L10.2667 21.375C10.8084 20.9417 12.2917 21.4584 12.2917 21.4584L8.65837 27.65Z" fill="#0E0A56" fill-opacity="0.3"/>
<path d="M28.2916 20.1784C27.6783 20.8001 28.4683 21.6001 28.4683 21.6001C28.4683 21.6001 29.0816 21.4192 29.335 21.1667C29.5875 20.9142 29.7316 20.3734 29.7316 20.3734C29.7316 20.3734 28.9275 19.5326 28.2916 20.1784Z" fill="#716BB4"/>
<path d="M12.0792 19.7666C11.5808 19.2891 10.805 19.2574 10.2692 19.6941L7.70833 21.6483H6.66667L5.83333 20.8149V17.6899L5.27083 17.8766C4.92083 17.9816 4.62 18.2074 4.42083 18.5133L1.345 23.2608L0 23.7849V29.1483L6.17833 27.5149C7.15833 27.3008 8.03417 26.7541 8.65667 25.9674L12.2058 21.5983C12.6425 21.0466 12.5875 20.2533 12.0792 19.7666Z" fill="#D2CEF9"/>
<path d="M10.2683 20.3734C10.2683 20.3734 10.4125 20.9142 10.665 21.1667C10.9175 21.4192 11.5316 21.6001 11.5316 21.6001C11.5316 21.6001 12.3216 20.8001 11.7083 20.1784C11.0725 19.5326 10.2683 20.3734 10.2683 20.3734Z" fill="#716BB4"/>
</g>
</g>
<defs>
<clipPath id="clip0_1127_56633">
<rect width="40" height="40" fill="white"/>
</clipPath>
<clipPath id="clip1_1127_56633">
<rect width="40" height="40" fill="white"/>
</clipPath>
</defs>
</svg>
