<svg viewBox="0 0 40 40" fill="none" xmlns="http://www.w3.org/2000/svg">
<path d="M23.9584 32.8013C25.7396 26.2882 36.4271 26.2882 38.2084 32.8013V35.0417H23.9584V32.8013Z" fill="#463DA6"/>
<path d="M31.0833 26.3333C33.2695 26.3333 35.0417 24.5611 35.0417 22.375C35.0417 20.1888 33.2695 18.4166 31.0833 18.4166C28.8972 18.4166 27.125 20.1888 27.125 22.375C27.125 24.5611 28.8972 26.3333 31.0833 26.3333Z" fill="#D2CEF9"/>
<path d="M3.77087 21.5834C3.37504 26.0539 2.97921 30.5245 2.58337 34.995C7.33337 34.995 12.0834 34.995 16.8334 34.995C16.4375 30.5245 16.0417 26.0539 15.6459 21.5834C11.6875 21.5834 7.72921 21.5834 3.77087 21.5834Z" fill="#463DA6"/>
<path d="M12.0833 23.9583C11.6455 23.9583 11.2916 23.6044 11.2916 23.1666V21.5833C11.2916 20.7101 10.5815 20 9.70829 20C8.83508 20 8.12496 20.7101 8.12496 21.5833V23.1666C8.12496 23.6044 7.77108 23.9583 7.33329 23.9583C6.8955 23.9583 6.54163 23.6044 6.54163 23.1666V21.5833C6.54163 19.8369 7.96188 18.4166 9.70829 18.4166C11.4547 18.4166 12.875 19.8369 12.875 21.5833V23.1666C12.875 23.6044 12.5211 23.9583 12.0833 23.9583Z" fill="#60C764"/>
<path d="M21.7045 14.4718C21.7045 14.034 21.6135 13.6896 21.4345 13.4363C21.2556 13.1829 20.9603 12.9446 20.5487 12.7238C19.7427 12.3659 19.145 12.0215 18.7579 11.6922C18.37 11.3621 18.081 10.986 17.891 10.5609C17.701 10.1374 17.606 9.6315 17.606 9.04646C17.606 8.17088 17.8483 7.44808 18.3336 6.87492C18.8189 6.30333 19.4601 5.9645 20.2557 5.85842V4.16663H21.4504V5.89008C22.2412 6.04367 22.8564 6.44504 23.2965 7.09263C23.7383 7.74179 23.9584 8.56433 23.9584 9.55946H21.7195C21.7195 8.92692 21.6285 8.45508 21.4472 8.14396C21.2651 7.83283 21.0284 7.67767 20.7387 7.67767C20.4592 7.67767 20.2407 7.79879 20.0824 8.04025C19.924 8.28408 19.8449 8.62133 19.8449 9.05279C19.8449 9.42804 19.9264 9.73917 20.0903 9.98696C20.2526 10.2348 20.5645 10.4928 21.0229 10.7612C21.8668 11.1634 22.4748 11.5275 22.8461 11.8569C23.2182 12.187 23.4937 12.5599 23.6726 12.9755C23.8515 13.3927 23.9417 13.8859 23.9417 14.4551C23.9417 15.3465 23.7058 16.0717 23.234 16.6306C22.7614 17.1895 22.109 17.5236 21.2754 17.6345V19.2083H20.0903V17.6353C19.1767 17.503 18.4737 17.1143 17.9781 16.4691C17.4825 15.8223 17.2347 14.9626 17.2347 13.8867H19.4728C19.4728 14.509 19.5733 14.9879 19.7744 15.322C19.9739 15.6577 20.274 15.8239 20.6753 15.8239C20.9967 15.8239 21.2493 15.7044 21.4314 15.4645C21.6135 15.2246 21.7045 14.8929 21.7045 14.4718Z" fill="#60C764"/>
<path d="M24.75 23.9584H19.6041V25.5417H24.75V23.9584Z" fill="#BDE9BF"/>
<path d="M17.625 24.75L20.7917 27.125V22.375L17.625 24.75Z" fill="#BDE9BF"/>
<path d="M12.4995 10.5475L8.86035 14.1868L9.97996 15.3063L13.6191 11.6671L12.4995 10.5475Z" fill="#BDE9BF"/>
<path d="M14.4583 9.70837L10.5396 10.2681L13.8986 13.6271L14.4583 9.70837Z" fill="#BDE9BF"/>
<path d="M27.3959 9.65225L26.2764 10.7719L29.9156 14.411L31.0352 13.2914L27.3959 9.65225Z" fill="#BDE9BF"/>
<path d="M31.875 15.25L31.3153 11.3313L27.9563 14.6903L31.875 15.25Z" fill="#BDE9BF"/>
</svg>
