<svg viewBox="0 0 24 25" fill="none" xmlns="http://www.w3.org/2000/svg">
<path d="M16.8218 5.6344C16.0887 4.79394 15.648 3.69805 15.648 2.5H14.7293C14.9659 3.8095 15.7454 4.93326 16.8218 5.6344Z" fill="white"/>
<path d="M8.3218 12.4048C6.73038 12.4048 5.43591 13.7004 5.43591 15.2931C5.43591 16.403 6.06691 17.3688 6.98556 17.8517C6.64223 17.3781 6.43808 16.7977 6.43808 16.1661C6.43808 14.5734 7.73255 13.2778 9.324 13.2778C9.62093 13.2778 9.90856 13.3288 10.1777 13.4124V9.90192C9.89927 9.86473 9.61628 9.84149 9.324 9.84149C9.27294 9.84149 9.22654 9.84614 9.1755 9.84614V12.5394C8.90176 12.4558 8.61873 12.4048 8.3218 12.4048Z" fill="white"/>
<path d="M19.4245 7.17608V9.84614C17.6429 9.84614 15.9912 9.27501 14.6456 8.30911V15.2977C14.6456 18.7851 11.8108 21.627 8.32172 21.627C6.97621 21.627 5.7235 21.1998 4.69812 20.48C5.8534 21.7198 7.50049 22.5 9.32392 22.5C12.8083 22.5 15.6478 19.6627 15.6478 16.1707V9.18211C16.9933 10.148 18.645 10.7191 20.4267 10.7191V7.28293C20.0787 7.28293 19.7446 7.24574 19.4245 7.17608Z" fill="white"/>
<path d="M14.6456 15.2977V8.30911C15.9912 9.27501 17.6429 9.84614 19.4245 9.84614V7.17608C18.3945 6.95788 17.4899 6.40063 16.8218 5.6344C15.7454 4.93326 14.9704 3.8095 14.7245 2.5H12.2098L12.2051 16.2775C12.1495 17.8192 10.8782 19.0591 9.32393 19.0591C8.35884 19.0591 7.50977 18.5808 6.98085 17.8564C6.06219 17.3688 5.4312 16.4076 5.4312 15.2977C5.4312 13.705 6.72567 12.4094 8.31708 12.4094C8.61402 12.4094 8.90168 12.4605 9.17079 12.5441V9.85079C5.75598 9.92509 3 12.7298 3 16.1707C3 17.8331 3.64492 19.347 4.69812 20.48C5.7235 21.1998 6.97621 21.627 8.32172 21.627C11.8061 21.627 14.6456 18.7851 14.6456 15.2977Z" fill="white"/>
</svg>
