<svg viewBox="0 0 24 25" fill="none" xmlns="http://www.w3.org/2000/svg">
<path d="M22 6.4246C21.2645 6.75051 20.4744 6.97071 19.6438 7.07025C20.4911 6.56289 21.1412 5.75782 21.4477 4.79948C20.655 5.26984 19.7768 5.6116 18.8422 5.79481C18.0935 4.99855 17.0277 4.5 15.8474 4.5C13.582 4.5 11.7446 6.3374 11.7446 8.60464C11.7446 8.92526 11.7816 9.23707 11.8503 9.53832C8.43883 9.36656 5.41672 7.73263 3.39258 5.25046C3.04025 5.85823 2.83766 6.56289 2.83766 7.31335C2.83766 8.73677 3.56258 9.9937 4.66273 10.7292C3.98978 10.7072 3.35735 10.5231 2.80419 10.2157V10.2685C2.80419 12.2565 4.21792 13.9151 6.09583 14.2921C5.75055 14.3855 5.38853 14.4348 5.01506 14.4348C4.75081 14.4348 4.49273 14.4102 4.24258 14.3626C4.76491 15.9921 6.27993 17.1795 8.07593 17.2112C6.67101 18.3122 4.90144 18.9684 2.97948 18.9684C2.64829 18.9684 2.3215 18.949 2 18.9112C3.81626 20.0765 5.97252 20.7547 8.28909 20.7547C15.8378 20.7547 19.9644 14.5026 19.9644 9.08029C19.9644 8.90412 19.96 8.7262 19.9521 8.55003C20.7536 7.97045 21.4495 7.24905 21.9982 6.42724L22 6.4246Z" fill="white"/>
</svg>
